<?xml version="1.0" encoding="utf-8"?>
<!-- Generator: Adobe Illustrator 25.0.1, SVG Export Plug-In . SVG Version: 6.00 Build 0)  -->
<svg version="1.1" id="圖層_1" xmlns="http://www.w3.org/2000/svg" xmlns:xlink="http://www.w3.org/1999/xlink" x="0px" y="0px"
	 viewBox="0 0 1486.3 307.2" style="enable-background:new 0 0 1486.3 307.2;" xml:space="preserve">
<style type="text/css">
	.st0{clip-path:url(#SVGID_2_);fill:#4F2F8E;}
</style>
<g>
	<defs>
		<rect id="SVGID_1_" x="-243.96" y="-178.77" width="1967.23" height="653.23"/>
	</defs>
	<clipPath id="SVGID_2_">
		<use xlink:href="#SVGID_1_"  style="overflow:visible;"/>
	</clipPath>
	<path class="st0" d="M253.05,72.71h-35.99v186.24v7.88h-34.96v-7.88V51.68v-7.89h70.96C253.05,43.79,246.31,58.31,253.05,72.71
		 M368.31,90.32c3.24,8.35,4.85,12.69,4.85,22.35c0,20.83-7.35,38.53-22.02,53.1c-14.69,14.58-32.33,21.87-52.93,21.87l-62.19-0.34
		v-27.6h53.98c13.38-0.21,24.99-4.78,34.86-13.65c9.86-8.88,14.79-19.8,14.79-32.7c0-8.55-2.13-16.25-6.35-23.09L368.31,90.32z"/>
	<path class="st0" d="M324.17,58.2c0,16.44-13.31,29.75-29.74,29.75c-16.42,0-29.74-13.31-29.74-29.75
		c0-16.43,13.33-29.75,29.74-29.75C310.86,28.46,324.17,41.77,324.17,58.2"/>
	<path class="st0" d="M154.85,265.36c-67.8,0-121.49-49.85-121.49-111.15c0-61.29,54.41-111.15,121.49-111.15
		c4.71,0,9.46,0.27,14.14,0.78l0.42,33.57c-3.45-0.4-11.12-0.59-14.57-0.59c-46.28,0-83.92,34.71-83.92,77.38
		c0,42.68,37.64,77.39,83.92,77.39c3.61,0,11.44-0.22,15.01-0.64l-0.23,33.52C164.75,265.06,159.79,265.36,154.85,265.36"/>
	<path class="st0" d="M333.76,78.74h55.29v188.1h34.96V78.74h60.49V43.81H333.76C333.76,43.81,345.09,59.28,333.76,78.74"/>
	<polygon class="st0" points="582.16,99.08 592.62,99.08 635.99,190.82 676.18,99.08 686.92,99.08 686.92,198.57 678.27,198.57 
		678.27,107.13 639.54,198.57 632.28,198.57 590.85,106.21 590.85,198.57 582.16,198.57 	"/>
	<polygon class="st0" points="807.5,164.17 823.62,198.86 830.45,198.57 783.95,99.08 777.46,99.08 734.35,198.27 740.55,198.27 
		754.19,167.29 756.99,161.06 780.84,107.13 	"/>
	<path class="st0" d="M887.61,198.57h-8.7V99.38h40.31c4.53,0,8.25,0.61,11.16,1.87c2.89,1.24,5.41,2.89,7.57,4.96
		c2.18,2.05,3.82,4.69,4.97,7.9c1.14,3.2,1.75,6.81,1.86,10.84c0.11,4.04-0.78,8.09-2.63,12.25c-2.08,3.93-4.25,6.72-6.51,8.38
		l-3.41,2.47c1.25,1.22,2.43,2.41,3.56,3.55c1.14,1.17,2.27,2.79,3.41,4.98c1.12,2.14,2.11,5.2,2.94,9.12l6.19,32.86h-6.51
		l-4.95-26.34c-0.41-2.07-1-4.6-1.7-7.61c-0.74-2.99-1.83-5.52-3.27-7.58c-1.44-2.07-3.25-3.47-5.42-4.18
		c-2.16-0.75-5.42-1.11-9.77-1.11h-29.12V198.57z M887.61,105.57v40.02h29.76c4.52,0,7.89-0.49,10.06-1.4
		c2.17-0.92,3.97-2.38,5.4-4.36c1.46-1.93,2.65-4.26,3.59-6.96c0.93-2.67,1.45-5.08,1.53-7.14c0.12-2.05-0.15-4.54-0.75-7.44
		c-0.85-2.69-2.13-5.15-3.87-7.29c-1.77-2.17-4.08-3.6-7-4.33c-2.89-0.74-6.08-1.11-9.61-1.11H887.61z"/>
	<polygon class="st0" points="1021.2,99.08 1029.89,99.08 1029.89,138.76 1071.73,99.39 1081.34,99.39 1034.22,143.09 
		1090.63,198.57 1080.42,198.57 1029.89,147.09 1029.89,198.27 1021.2,198.27 	"/>
	<polygon class="st0" points="1208.43,143.09 1208.43,149.28 1161.94,149.28 1161.94,192.38 1212.78,192.38 1212.78,198.57 
		1153.25,198.57 1153.25,99.39 1212.47,99.39 1212.47,105.58 1161.94,105.58 1161.94,143.09 	"/>
	<polygon class="st0" points="1269.47,105.28 1269.47,99.08 1344.17,99.08 1344.17,105.28 1310.7,105.28 1310.7,198.57 
		1302.01,198.57 1302.01,105.28 	"/>
	<path class="st0" d="M1395.88,173.47c0.62,1.86,1.34,3.66,2.18,5.42c0.82,1.73,2.47,3.72,4.95,5.89c2.47,2.17,4.9,3.75,7.29,4.79
		c2.37,1.05,5.02,1.77,7.91,2.17c2.88,0.42,5.46,0.63,7.75,0.63c4.94,0.21,9.71-0.56,14.24-2.34c4.57-1.73,7.86-3.9,9.94-6.5
		c2.05-2.56,3.24-5.36,3.54-8.36c0.32-2.98,0.06-5.63-0.76-7.88c-1.04-2.3-2.84-4.53-5.43-6.7c-2.6-2.18-5.63-3.87-9.15-5.12
		c-3.51-1.2-8.31-2.66-14.41-4.3c-6.1-1.68-11.1-3.23-15.03-4.66c-3.93-1.46-7.29-3.48-10.08-6.04c-2.79-2.57-4.69-5.39-5.72-8.38
		c-1.05-2.99-1.35-6.45-0.93-10.38c0.21-3.11,1.08-6.19,2.63-9.32c1.54-3.09,4.29-5.78,8.21-8.04c3.92-2.28,8.11-3.78,12.55-4.51
		c4.46-0.7,8.23-1.07,11.3-1.07c5.18,0.21,10.03,1.28,14.59,3.24c4.54,1.97,8.05,4.08,10.53,6.36c2.49,2.26,4.64,5.07,6.52,8.36
		l1.85,3.4l-8.07,0.33c-1.02-1.65-1.94-3.14-2.78-4.49c-0.84-1.35-2.55-2.96-5.12-4.82c-2.59-1.86-5-3.2-7.29-4.03
		c-2.27-0.82-6.21-1.32-11.77-1.55c-3.72,0-6.97,0.24-9.77,0.64c-2.79,0.4-5.68,1.53-8.67,3.38c-3.01,1.87-5.19,3.94-6.52,6.22
		c-1.34,2.26-2.06,4.86-2.18,7.77c-0.07,2.88,0.68,5.58,2.33,8.04c1.23,2.47,2.99,4.49,5.29,6.04c2.27,1.55,5.15,2.95,8.66,4.18
		c3.52,1.24,7.54,2.53,12.1,3.87c4.52,1.37,8.71,2.59,12.56,3.72c3.81,1.15,7.01,2.43,9.6,3.89c2.58,1.44,4.9,3.45,6.97,6.02
		c2.06,2.59,3.4,4.91,4.03,6.99c0.62,2.08,0.93,4.23,0.93,6.49c-0.43,4.58-1.56,8.49-3.41,11.8c-1.86,3.3-4.27,6.02-7.29,8.22
		c-3,2.13-6.36,3.65-10.06,4.49c-3.73,0.82-7.86,1.22-12.41,1.22c-5.58,0.21-10.13-0.1-13.64-0.93c-3.52-0.82-6.96-2.22-10.38-4.2
		c-3.42-1.93-6.14-4.07-8.21-6.34c-2.07-2.26-3.31-4.23-3.71-5.87l-3.11-7.77H1395.88z"/>
	<rect x="532.42" y="29.07" class="st0" width="2.73" height="236.79"/>
</g>
</svg>
